<svg width="96" height="98" viewBox="0 0 96 98" fill="none" xmlns="http://www.w3.org/2000/svg">
<g clip-path="url(#clip0_28_21)">
<path fill-rule="evenodd" clip-rule="evenodd" d="M96 21.2334V76.7667C96.0055 79.5567 95.4712 82.3203 94.4279 84.8989C93.3845 87.4776 91.8526 89.8206 89.92 91.7934C87.9875 93.7662 85.6924 95.33 83.1663 96.3951C80.6403 97.4602 77.9331 98.0056 75.2 98H20.8C18.067 98.0056 15.3598 97.4602 12.8338 96.3951C10.3077 95.33 8.01259 93.7662 6.08004 91.7934C4.1475 89.8206 2.61559 87.4776 1.57223 84.8989C0.528862 82.3203 -0.00541888 79.5567 4.14336e-05 76.7667V21.2334C-0.00541888 18.4434 0.528862 15.6798 1.57223 13.1011C2.61559 10.5225 4.1475 8.17952 6.08004 6.20671C8.01259 4.2339 10.3077 2.67008 12.8338 1.60498C15.3598 0.53988 18.067 -0.00553177 20.8 4.22968e-05H75.2C77.9331 -0.00553177 80.6403 0.53988 83.1663 1.60498C85.6924 2.67008 87.9875 4.2339 89.92 6.20671C91.8526 8.17952 93.3845 10.5225 94.4279 13.1011C95.4712 15.6798 96.0055 18.4434 96 21.2334Z" fill="url(#paint0_linear_28_21)"/>
<path fill-rule="evenodd" clip-rule="evenodd" d="M66.08 56.35H78C79.167 56.35 80.2861 56.8232 81.1113 57.6656C81.9364 58.5079 82.4 59.6504 82.4 60.8416C82.4 62.0329 81.9364 63.1754 81.1113 64.0177C80.2861 64.8601 79.167 65.3333 78 65.3333H66.08V56.35Z" fill="white"/>
<path fill-rule="evenodd" clip-rule="evenodd" d="M51.44 56.35C52.2714 56.3449 53.0954 56.5083 53.8644 56.8307C54.6335 57.1532 55.3321 57.6282 55.92 58.2283C56.5079 58.8284 56.9732 59.5417 57.2891 60.3267C57.6049 61.1118 57.765 61.953 57.76 62.8017C57.7632 63.6694 57.6002 64.5294 57.28 65.3333H18C16.8331 65.3333 15.7139 64.8601 14.8887 64.0177C14.0636 63.1754 13.6 62.0329 13.6 60.8416C13.6 59.6504 14.0636 58.5079 14.8887 57.6656C15.7139 56.8232 16.8331 56.35 18 56.35H51.44ZM50.32 26.7866V34.6267H45.2L38.96 23.6833C38.6859 23.2007 38.5077 22.6676 38.4356 22.1146C38.3635 21.5616 38.399 20.9995 38.5399 20.4604C38.6808 19.9214 38.9244 19.416 39.2568 18.9732C39.5892 18.5304 40.0038 18.1588 40.477 17.8797C40.9502 17.6006 41.4727 17.4194 42.0145 17.3467C42.5563 17.2739 43.1069 17.3108 43.6347 17.4554C44.1625 17.6 44.6572 17.8495 45.0906 18.1894C45.5239 18.5294 45.8873 18.9532 46.16 19.4367L50.32 26.7866ZM54.72 34.3817L76.56 73.01C77.1435 74.0388 77.3027 75.2621 77.0026 76.4108C76.7026 77.5594 75.9678 78.5394 74.96 79.135C73.9522 79.7306 72.7539 79.8932 71.6286 79.5868C70.5034 79.2805 69.5435 78.5305 68.96 77.5017L55.76 54.0633C54.56 51.7766 53.68 49.98 53.12 49C51.8053 46.7135 51.2507 44.0541 51.5391 41.4193C51.8275 38.7844 52.9434 36.3155 54.72 34.3817Z" fill="white"/>
<path fill-rule="evenodd" clip-rule="evenodd" d="M36.8 60.4333H26.64L49.6 19.845C50.1835 18.8162 51.1434 18.0661 52.2686 17.7598C53.3938 17.4535 54.5922 17.616 55.6 18.2117C56.6078 18.8073 57.3426 19.7872 57.6426 20.9359C57.9427 22.0846 57.7835 23.3079 57.2 24.3367L36.8 60.4333ZM31.44 69.825L27.2 77.42C26.9111 77.9294 26.5267 78.3758 26.0688 78.7336C25.6109 79.0913 25.0885 79.3535 24.5314 79.5052C23.9742 79.6569 23.3933 79.695 22.8217 79.6175C22.2501 79.54 21.699 79.3483 21.2 79.0533C20.701 78.7584 20.2637 78.366 19.9133 77.8986C19.5628 77.4312 19.3059 76.8979 19.1574 76.3291C19.0088 75.7604 18.9714 75.1673 19.0473 74.5838C19.1233 74.0003 19.3111 73.4378 19.6 72.9283L22.72 67.375C23.6889 66.8829 24.7578 66.6311 25.84 66.64C26.9687 66.6022 28.0862 66.8786 29.0727 67.4397C30.0592 68.0008 30.8775 68.8254 31.44 69.825Z" fill="white"/>
</g>
<defs>
<linearGradient id="paint0_linear_28_21" x1="47.9992" y1="98" x2="47.9992" y2="4.673e-05" gradientUnits="userSpaceOnUse">
<stop stop-color="#1D6FF2"/>
<stop offset="1" stop-color="#1AC8FC"/>
</linearGradient>
<clipPath id="clip0_28_21">
<rect width="96" height="98" fill="white"/>
</clipPath>
</defs>
</svg>
