<svg width="104" height="97" viewBox="0 0 104 97" fill="none" xmlns="http://www.w3.org/2000/svg">
<mask id="mask0_7_4727" style="mask-type:luminance" maskUnits="userSpaceOnUse" x="0" y="0" width="104" height="97">
<path d="M0 96.3512V0H104V96.3512H0Z" fill="#76ABC4"/>
</mask>
<g mask="url(#mask0_7_4727)">
<path fill-rule="evenodd" clip-rule="evenodd" d="M104 48.1451C104 74.7682 80.6968 96.3508 51.9512 96.3508C23.2056 96.3508 -0.0975952 74.7682 -0.0975952 48.1451C-0.0975952 21.5219 23.2056 -0.0606689 51.9512 -0.0606689C80.6968 -0.0606689 104 21.5219 104 48.1451Z" fill="#76ABC4"/>
</g>
<path fill-rule="evenodd" clip-rule="evenodd" d="M70.1195 75.2614C69.9339 75.2632 69.7493 75.2368 69.573 75.1831C69.2021 75.0701 68.7174 74.9496 68.127 74.7974C60.4758 72.836 37.197 66.8691 25.9951 34.6827C25.8952 34.3956 25.8834 34.0884 25.961 33.7954C26.0179 33.5845 27.4297 28.5229 36.8213 27.0798C37.1716 27.0232 37.5322 27.0679 37.8541 27.2078C38.1973 27.3524 46.3316 30.8955 47.0098 38.1174C47.057 38.5783 46.8862 39.0378 46.5495 39.3767C43.8836 42.0522 41.5658 45.3422 41.6895 46.2792C41.9025 47.9453 47.5498 56.7323 57.6619 61.3119C59.1697 61.0904 62.6651 58.9573 65.196 56.9553C65.5125 56.7019 65.9162 56.5614 66.3346 56.5591C66.4777 56.5591 66.6225 56.5756 66.764 56.6103C74.786 58.412 77.6779 63.5097 77.7983 63.7267C77.9691 64.0355 78.0293 64.391 77.9691 64.733C76.6174 72.6026 71.0873 75.0143 70.853 75.1138C70.6228 75.211 70.3726 75.2614 70.1195 75.2614Z" fill="#638DA0"/>
<path fill-rule="evenodd" clip-rule="evenodd" d="M47.0098 35.1042C46.3315 27.8824 38.1973 24.3393 37.8541 24.1947C37.5322 24.0546 37.1716 24.0099 36.8213 24.0666C27.4297 25.5098 26.0179 30.5714 25.961 30.7823C25.8829 31.0776 25.8959 31.3834 25.9951 31.6696C37.197 63.856 60.4758 69.8229 68.127 71.7843C68.7174 71.9364 69.2021 72.057 69.573 72.1699C69.994 72.296 70.4507 72.2713 70.853 72.1006C71.0873 72.0012 76.6174 69.5894 77.9691 61.7198C78.0293 61.3779 77.9691 61.0224 77.7983 60.7135C77.6779 60.4966 74.786 55.3989 66.764 53.5972C66.492 53.5328 66.2072 53.5306 65.9341 53.5907C65.6609 53.6508 65.4077 53.7714 65.196 53.9421C62.6651 55.9442 59.1697 58.0773 57.6619 58.2972C47.5498 53.7192 41.9025 44.9322 41.6894 43.2661C41.5658 42.3291 43.8836 39.039 46.5495 36.3636C46.8862 36.0247 47.057 35.5652 47.0098 35.1042Z" fill="#FFFFFE"/>
</svg>
