<svg width="105" height="98" viewBox="0 0 105 98" fill="none" xmlns="http://www.w3.org/2000/svg">
<rect width="105" height="97" rx="10" fill="#3F8CD2" fill-opacity="0.78"/>
<path d="M103.175 24.6681L103.5 24.8663V24.8665V24.8668V24.8672V24.8675V24.8679V24.8682V24.8686V24.8689V24.8692V24.8696V24.8699V24.8703V24.8706V24.8709V24.8713V24.8716V24.8719V24.8723V24.8726V24.8729V24.8733V24.8736V24.8739V24.8742V24.8746V24.8749V24.8752V24.8755V24.8759V24.8762V24.8765V24.8768V24.8771V24.8774V24.8777V24.878V24.8783V24.8787V24.879V24.8793V24.8796V24.8799V24.8802V24.8805V24.8808V24.881V24.8813V24.8816V24.8819V24.8822V24.8825V24.8828V24.8831V24.8833V24.8836V24.8839V24.8842V24.8845V24.8847V24.885V24.8853V24.8855V24.8858V24.8861V24.8863V24.8866V24.8869V24.8871V24.8874V24.8876V24.8879V24.8881V24.8884V24.8886V24.8889V24.8891V24.8894V24.8896V24.8899V24.8901V24.8903V24.8906V24.8908V24.891V24.8913V24.8915V24.8917V24.8919V24.8922V24.8924V24.8926V24.8928V24.893V24.8932V24.8935V24.8937V24.8939V24.8941V24.8943V24.8945V24.8947V24.8949V24.8951V24.8953V24.8954V24.8956V24.8958V24.896V24.8962V24.8964V24.8966V24.8967V24.8969V24.8971V24.8972V24.8974V24.8976V24.8977V24.8979V24.8981V24.8982V24.8984V24.8985V24.8987V24.8988V24.899V24.8991V24.8993V24.8994V24.8995V24.8997V24.8998V24.8999V24.9001V24.9002V24.9003V24.9004V24.9006V24.9007V24.9008V24.9009V24.901V24.9011V24.9012V24.9013V24.9014V24.9015V24.9016V24.9017V24.9018V24.9019V24.902V24.9021V24.9022V24.9022V24.9023V24.9024V24.9025V24.9025V24.9026V24.9027V24.9027V24.9028V24.9028V24.9029V24.903V24.9031V24.9032V24.9033V24.9033V24.9034V25.1219V25.1222V25.1226V25.1229V25.1233V25.1236V25.1239V25.1243V25.1246V25.125V25.1253V25.1256V25.126V25.1263V25.1266V25.127V25.1273V25.1276V25.1279V25.1283V25.1286V25.1289V25.1292V25.1296V25.1299V25.1302V25.1305V25.1308V25.1311V25.1315V25.1318V25.1321V25.1324V25.1327V25.133V25.1333V25.1336V25.1339V25.1342V25.1345V25.1348V25.1351V25.1354V25.1357V25.136V25.1363V25.1366V25.1369V25.1372V25.1375V25.1378V25.1381V25.1384V25.1387V25.1389V25.1392V25.1395V25.1398V25.1401V25.1404V25.1406V25.1409V25.1412V25.1415V25.1418V25.142V25.1423V25.1426V25.1429V25.1431V25.1434V25.1437V25.144V25.1442V25.1445V25.1448V25.145V25.1453V25.1456V25.1458V25.1461V25.1464V25.1466V25.1469V25.1472V25.1474V25.1477V25.148V25.1482V25.1485V25.1487V25.149V25.1493V25.1495V25.1498V25.15V25.1503V25.1505V25.1508V25.151V25.1513V25.1515V25.1518V25.152V25.1523V25.1525V25.1528V25.153V25.1533V25.1535V25.1538V25.154V25.1543V25.1545V25.1548V25.155V25.1553V25.1555V25.1558V25.156V25.1562V25.1565V25.1567V25.157V25.1572V25.1575V25.1577V25.1579V25.1582V25.1584V25.1587V25.1589V25.1591V25.1594V25.1596V25.1598V25.1601V25.1603V25.1606V25.1608V25.161V25.1613V25.1615V25.1617V25.162V25.1622V25.1624V25.1627V25.1629V25.1632V25.1634V25.1636V25.1639V25.1641V25.1643V25.1646V25.1648V25.165V25.1653V25.1655V25.1657V25.166V25.1662V25.1664V25.1667V25.1669V25.1671V25.1674V25.1676V25.1678V25.1681V25.1683V25.1685V25.1687V25.169V25.1692V25.1694V25.1697V25.1699V25.1701V25.1704V25.1706V25.1708V25.1711V25.1713V25.1715V25.1718V25.172V25.1722V25.1725V25.1727V25.1729V25.1732V25.1734V25.1737V25.1739V25.1741V25.1744V25.1746V25.1748V25.1751V25.1753V25.1755V25.1758V25.176V25.1763V25.1765V25.1767V25.177V25.1772V25.1774V25.1777V25.1779V25.1782V25.1784V25.1786V25.1789V25.1791V25.1794V25.1796V25.1798V25.1801V25.1803V25.1806V25.1808V25.1811V25.1813V25.1816V25.1818V25.182V25.1823V25.1825V25.1828V25.183V25.1833V25.1835V25.1838V25.184V25.1843V25.1845V25.1848V25.185V25.1853V25.1855V25.1858V25.1861V25.1863V25.1866V25.1868V25.1871V25.1873V25.1876V25.1879V25.1881V25.1884V25.1886V25.1889V25.1892V25.1894V25.1897V25.1899V25.1902V25.1905V25.1907V25.191V25.1913V25.1915V25.1918V25.1921V25.1924V25.1926V25.1929V25.1932V25.1934V25.1937V25.194V25.1943V25.1946V25.1948V25.1951V25.1954V25.1957V25.196V25.1962V25.1965V25.1968V25.1971V25.1974V25.1977V25.198V25.1982V25.1985V25.1988V25.1991V25.1994V25.1997V25.2V25.2003V25.2006V25.2009V25.2012V25.2015V25.2018V25.2021V25.2024V25.2027V25.203V25.2033V25.2036V25.2039V25.2042V25.2045V25.2049V25.2052V25.2055V25.2058V25.2061V25.2064V25.2068V25.2071V25.2074V25.2077V25.208V25.2084V25.2087V25.209V25.2093V25.2097V25.21V25.2103V25.2107V25.211V25.2113V25.2117V25.212V25.2124V25.2127V25.213V25.2134V25.2137V25.2141V25.2144V25.2148V25.2151V25.2155V25.2158V25.2162V25.2165V25.2169V25.2173V25.2176V25.218V25.2183V25.2187V25.2191V25.2194V25.2198V25.2202V25.2206V25.2209V25.2213V25.2217V25.2221V25.2224V25.2228V25.2232V25.2236V25.224V25.2244V25.2248V25.2251V25.2255V25.2259V25.2263V25.2267V25.2271V25.2275V25.2279V25.2283V25.2287V25.2291V25.2295V25.23V25.2304V25.2308V25.2312V25.2316V25.2319L103.37 25.3312V25.5786V82.7135C103.37 82.9537 103.243 83.2404 102.904 83.5166C102.904 83.5168 102.904 83.517 102.903 83.5172L87.1752 96.1899C86.991 96.3087 86.7724 96.4142 86.5248 96.4999L86.5081 96.5057L86.4919 96.5126L86.1941 96.6398C85.8227 96.7468 85.4131 96.8057 84.9936 96.81H3.25407C2.46382 96.81 1.73051 96.617 1.21356 96.3015C0.692574 95.9836 0.5 95.6166 0.5 95.3241V38.6592C0.507993 38.5286 0.552662 38.3885 0.647061 38.2432L0.727784 38.1189V38.0042C0.75648 37.9716 0.787744 37.939 0.821661 37.9066L15.8424 25.2276C15.8427 25.2274 15.843 25.2271 15.8432 25.2269C16.0856 25.0247 16.4197 24.8473 16.8272 24.7214C17.234 24.5957 17.6902 24.5289 18.1569 24.5296H18.1577H101.559H102.178H102.568H102.721L103.175 24.6681ZM103.567 25.1811L103.566 25.1812L103.569 25.1845C103.575 25.1921 103.594 25.2173 103.658 25.3006L103.569 25.1844C103.581 25.1672 103.588 25.161 103.583 25.1665C103.581 25.1682 103.579 25.1703 103.577 25.1724C103.574 25.1746 103.571 25.1769 103.569 25.1792L103.567 25.1811ZM19.8173 27.0645H19.6325L19.4921 27.1847L9.3069 35.9029L8.27899 36.7827H9.63204H83.4343H83.6109L83.7483 36.6718L94.5518 27.9537L95.6536 27.0645H94.2378H19.8173ZM6.37797 39.7347H5.87797V40.2347V93.3382V93.8382H6.37797H81.7422H82.2422V93.3382V40.2347V39.7347H81.7422H6.37797ZM87.7503 89.406V90.4494L88.5635 89.7958L97.8051 82.3684L97.9919 82.2183V81.9787V31.7151V30.6402L97.1697 31.3327L87.9282 39.1175L87.7503 39.2673V39.4999V89.406ZM60.7854 17.7228C58.1762 18.7868 55.0955 19.3592 51.9349 19.3592C47.6925 19.3592 43.6485 18.3293 40.6905 16.5241C37.7285 14.7164 36.1646 12.3289 36.1646 9.9296C36.1646 8.13791 37.0337 6.34413 38.7438 4.78219C40.4566 3.21782 42.9172 1.9772 45.8311 1.2406C48.7422 0.504699 51.9516 0.311162 55.0489 0.687155C58.1475 1.06331 60.9755 1.99013 63.1793 3.33511C65.3856 4.68159 66.8367 6.36625 67.4172 8.14737C67.9928 9.91314 67.7059 11.7501 66.553 13.4487C65.392 15.1593 63.3983 16.6573 60.7854 17.7228ZM57.5473 4.51292C55.8755 3.8312 53.9231 3.47184 51.9349 3.47184C49.273 3.47184 46.6956 4.11579 44.7715 5.29003C42.8515 6.4618 41.6727 8.11531 41.6727 9.9296C41.6727 11.2801 42.3303 12.558 43.4807 13.6087C44.6285 14.657 46.2336 15.4527 48.0765 15.9186C49.9222 16.3852 51.9472 16.5063 53.8997 16.2692C55.8508 16.0324 57.6614 15.4461 59.0983 14.5692C60.5327 13.6938 61.561 12.5476 61.9849 11.2468C62.4139 9.93076 62.1852 8.57326 61.3677 7.36887C60.5584 6.17642 59.2154 5.19315 57.5473 4.51292Z" fill="#E6D9D9" stroke="black"/>
<path d="M38.9186 30.4279H64.9512C65.7414 30.4279 66.4747 30.6208 66.9917 30.9363C67.5127 31.2543 67.7053 31.6213 67.7053 31.9138C67.7053 32.2063 67.5127 32.5733 66.9917 32.8912C66.4747 33.2067 65.7414 33.3997 64.9512 33.3997H38.9186C38.1284 33.3997 37.3951 33.2067 36.8781 32.8912C36.3572 32.5733 36.1646 32.2063 36.1646 31.9138C36.1646 31.6213 36.3572 31.2543 36.8781 30.9363C37.3951 30.6208 38.1284 30.4279 38.9186 30.4279Z" fill="#E6D9D9" stroke="black"/>
</svg>
