<svg width="200" height="300" viewBox="0 0 200 300" fill="none" xmlns="http://www.w3.org/2000/svg">
<circle cx="2.5" cy="2.5" r="2.5" fill="#6199DF"/>
<circle cx="15.5" cy="2.5" r="2.5" fill="#6199DF"/>
<circle cx="28.5" cy="2.5" r="2.5" fill="#6199DF"/>
<circle cx="41.5" cy="2.5" r="2.5" fill="#6199DF"/>
<circle cx="54.5" cy="2.5" r="2.5" fill="#6199DF"/>
<circle cx="67.5" cy="2.5" r="2.5" fill="#6199DF"/>
<circle cx="80.5" cy="2.5" r="2.5" fill="#6199DF"/>
<circle cx="93.5" cy="2.5" r="2.5" fill="#6199DF"/>
<circle cx="106.5" cy="2.5" r="2.5" fill="#6199DF"/>
<circle cx="119.5" cy="2.5" r="2.5" fill="#6199DF"/>
<circle cx="132.5" cy="2.5" r="2.5" fill="#6199DF"/>
<circle cx="145.5" cy="2.5" r="2.5" fill="#6199DF"/>
<circle cx="158.5" cy="2.5" r="2.5" fill="#6199DF"/>
<circle cx="171.5" cy="2.5" r="2.5" fill="#6199DF"/>
<circle cx="184.5" cy="2.5" r="2.5" fill="#6199DF"/>
<circle cx="197.5" cy="2.5" r="2.5" fill="#6199DF"/>
<circle cx="2.5" cy="15.5" r="2.5" fill="#6199DF"/>
<circle cx="15.5" cy="15.5" r="2.5" fill="#6199DF"/>
<circle cx="28.5" cy="15.5" r="2.5" fill="#6199DF"/>
<circle cx="41.5" cy="15.5" r="2.5" fill="#6199DF"/>
<circle cx="54.5" cy="15.5" r="2.5" fill="#6199DF"/>
<circle cx="67.5" cy="15.5" r="2.5" fill="#6199DF"/>
<circle cx="80.5" cy="15.5" r="2.5" fill="#6199DF"/>
<circle cx="93.5" cy="15.5" r="2.5" fill="#6199DF"/>
<circle cx="106.5" cy="15.5" r="2.5" fill="#6199DF"/>
<circle cx="119.5" cy="15.5" r="2.5" fill="#6199DF"/>
<circle cx="132.5" cy="15.5" r="2.5" fill="#6199DF"/>
<circle cx="145.5" cy="15.5" r="2.5" fill="#6199DF"/>
<circle cx="158.5" cy="15.5" r="2.5" fill="#6199DF"/>
<circle cx="171.5" cy="15.5" r="2.5" fill="#6199DF"/>
<circle cx="184.5" cy="15.5" r="2.5" fill="#6199DF"/>
<circle cx="197.5" cy="15.5" r="2.5" fill="#6199DF"/>
<circle cx="2.5" cy="28.5" r="2.5" fill="#6199DF"/>
<circle cx="15.5" cy="28.5" r="2.5" fill="#6199DF"/>
<circle cx="28.5" cy="28.5" r="2.5" fill="#6199DF"/>
<circle cx="41.5" cy="28.5" r="2.5" fill="#6199DF"/>
<circle cx="54.5" cy="28.5" r="2.5" fill="#6199DF"/>
<circle cx="67.5" cy="28.5" r="2.5" fill="#6199DF"/>
<circle cx="80.5" cy="28.5" r="2.5" fill="#6199DF"/>
<circle cx="93.5" cy="28.5" r="2.5" fill="#6199DF"/>
<circle cx="106.5" cy="28.5" r="2.5" fill="#6199DF"/>
<circle cx="119.5" cy="28.5" r="2.5" fill="#6199DF"/>
<circle cx="132.5" cy="28.5" r="2.5" fill="#6199DF"/>
<circle cx="145.5" cy="28.5" r="2.5" fill="#6199DF"/>
<circle cx="158.5" cy="28.5" r="2.5" fill="#6199DF"/>
<circle cx="171.5" cy="28.5" r="2.5" fill="#6199DF"/>
<circle cx="184.5" cy="28.5" r="2.5" fill="#6199DF"/>
<circle cx="197.5" cy="28.5" r="2.5" fill="#6199DF"/>
<circle cx="2.5" cy="41.5" r="2.5" fill="#6199DF"/>
<circle cx="15.5" cy="41.5" r="2.5" fill="#6199DF"/>
<circle cx="28.5" cy="41.5" r="2.5" fill="#6199DF"/>
<circle cx="41.5" cy="41.5" r="2.5" fill="#6199DF"/>
<circle cx="54.5" cy="41.5" r="2.5" fill="#6199DF"/>
<circle cx="67.5" cy="41.5" r="2.5" fill="#6199DF"/>
<circle cx="80.5" cy="41.5" r="2.5" fill="#6199DF"/>
<circle cx="93.5" cy="41.5" r="2.5" fill="#6199DF"/>
<circle cx="106.5" cy="41.5" r="2.5" fill="#6199DF"/>
<circle cx="119.5" cy="41.5" r="2.5" fill="#6199DF"/>
<circle cx="132.5" cy="41.5" r="2.5" fill="#6199DF"/>
<circle cx="145.5" cy="41.5" r="2.5" fill="#6199DF"/>
<circle cx="158.5" cy="41.5" r="2.5" fill="#6199DF"/>
<circle cx="171.5" cy="41.5" r="2.5" fill="#6199DF"/>
<circle cx="184.5" cy="41.5" r="2.5" fill="#6199DF"/>
<circle cx="197.5" cy="41.5" r="2.5" fill="#6199DF"/>
<circle cx="2.5" cy="54.5" r="2.5" fill="#6199DF"/>
<circle cx="15.5" cy="54.5" r="2.5" fill="#6199DF"/>
<circle cx="28.5" cy="54.5" r="2.5" fill="#6199DF"/>
<circle cx="41.5" cy="54.5" r="2.5" fill="#6199DF"/>
<circle cx="54.5" cy="54.5" r="2.5" fill="#6199DF"/>
<circle cx="67.5" cy="54.5" r="2.5" fill="#6199DF"/>
<circle cx="80.5" cy="54.5" r="2.5" fill="#6199DF"/>
<circle cx="93.5" cy="54.5" r="2.5" fill="#6199DF"/>
<circle cx="106.5" cy="54.5" r="2.5" fill="#6199DF"/>
<circle cx="119.5" cy="54.5" r="2.5" fill="#6199DF"/>
<circle cx="132.5" cy="54.5" r="2.5" fill="#6199DF"/>
<circle cx="145.5" cy="54.5" r="2.5" fill="#6199DF"/>
<circle cx="158.5" cy="54.5" r="2.5" fill="#6199DF"/>
<circle cx="171.5" cy="54.5" r="2.5" fill="#6199DF"/>
<circle cx="184.5" cy="54.5" r="2.5" fill="#6199DF"/>
<circle cx="197.5" cy="54.5" r="2.5" fill="#6199DF"/>
<circle cx="2.5" cy="67.5" r="2.5" fill="#6199DF"/>
<circle cx="15.5" cy="67.5" r="2.5" fill="#6199DF"/>
<circle cx="28.5" cy="67.5" r="2.5" fill="#6199DF"/>
<circle cx="41.5" cy="67.5" r="2.5" fill="#6199DF"/>
<circle cx="54.5" cy="67.5" r="2.5" fill="#6199DF"/>
<circle cx="67.5" cy="67.5" r="2.5" fill="#6199DF"/>
<circle cx="80.5" cy="67.5" r="2.5" fill="#6199DF"/>
<circle cx="93.5" cy="67.5" r="2.5" fill="#6199DF"/>
<circle cx="106.5" cy="67.5" r="2.5" fill="#6199DF"/>
<circle cx="119.5" cy="67.5" r="2.5" fill="#6199DF"/>
<circle cx="132.5" cy="67.5" r="2.5" fill="#6199DF"/>
<circle cx="145.5" cy="67.5" r="2.5" fill="#6199DF"/>
<circle cx="158.5" cy="67.5" r="2.5" fill="#6199DF"/>
<circle cx="171.5" cy="67.5" r="2.5" fill="#6199DF"/>
<circle cx="184.5" cy="67.5" r="2.5" fill="#6199DF"/>
<circle cx="197.5" cy="67.5" r="2.5" fill="#6199DF"/>
<circle cx="2.5" cy="80.5" r="2.5" fill="#6199DF"/>
<circle cx="15.5" cy="80.5" r="2.5" fill="#6199DF"/>
<circle cx="28.5" cy="80.5" r="2.5" fill="#6199DF"/>
<circle cx="41.5" cy="80.5" r="2.5" fill="#6199DF"/>
<circle cx="54.5" cy="80.5" r="2.5" fill="#6199DF"/>
<circle cx="67.5" cy="80.5" r="2.5" fill="#6199DF"/>
<circle cx="80.5" cy="80.5" r="2.5" fill="#6199DF"/>
<circle cx="93.5" cy="80.5" r="2.5" fill="#6199DF"/>
<circle cx="106.5" cy="80.5" r="2.5" fill="#6199DF"/>
<circle cx="119.5" cy="80.5" r="2.5" fill="#6199DF"/>
<circle cx="132.5" cy="80.5" r="2.5" fill="#6199DF"/>
<circle cx="145.5" cy="80.5" r="2.5" fill="#6199DF"/>
<circle cx="158.5" cy="80.5" r="2.5" fill="#6199DF"/>
<circle cx="171.5" cy="80.5" r="2.5" fill="#6199DF"/>
<circle cx="184.5" cy="80.5" r="2.5" fill="#6199DF"/>
<circle cx="197.5" cy="80.5" r="2.5" fill="#6199DF"/>
<circle cx="2.5" cy="93.5" r="2.5" fill="#6199DF"/>
<circle cx="15.5" cy="93.5" r="2.5" fill="#6199DF"/>
<circle cx="28.5" cy="93.5" r="2.5" fill="#6199DF"/>
<circle cx="41.5" cy="93.5" r="2.5" fill="#6199DF"/>
<circle cx="54.5" cy="93.5" r="2.5" fill="#6199DF"/>
<circle cx="67.5" cy="93.5" r="2.5" fill="#6199DF"/>
<circle cx="80.5" cy="93.5" r="2.5" fill="#6199DF"/>
<circle cx="93.5" cy="93.5" r="2.5" fill="#6199DF"/>
<circle cx="106.5" cy="93.5" r="2.5" fill="#6199DF"/>
<circle cx="119.5" cy="93.5" r="2.5" fill="#6199DF"/>
<circle cx="132.5" cy="93.5" r="2.5" fill="#6199DF"/>
<circle cx="145.5" cy="93.5" r="2.5" fill="#6199DF"/>
<circle cx="158.5" cy="93.5" r="2.5" fill="#6199DF"/>
<circle cx="171.5" cy="93.5" r="2.5" fill="#6199DF"/>
<circle cx="184.5" cy="93.5" r="2.5" fill="#6199DF"/>
<circle cx="197.5" cy="93.5" r="2.5" fill="#6199DF"/>
<circle cx="2.5" cy="106.5" r="2.5" fill="#6199DF"/>
<circle cx="15.5" cy="106.5" r="2.5" fill="#6199DF"/>
<circle cx="28.5" cy="106.5" r="2.5" fill="#6199DF"/>
<circle cx="41.5" cy="106.5" r="2.5" fill="#6199DF"/>
<circle cx="54.5" cy="106.5" r="2.5" fill="#6199DF"/>
<circle cx="67.5" cy="106.5" r="2.5" fill="#6199DF"/>
<circle cx="80.5" cy="106.5" r="2.5" fill="#6199DF"/>
<circle cx="93.5" cy="106.5" r="2.5" fill="#6199DF"/>
<circle cx="106.5" cy="106.5" r="2.5" fill="#6199DF"/>
<circle cx="119.5" cy="106.5" r="2.5" fill="#6199DF"/>
<circle cx="132.5" cy="106.5" r="2.5" fill="#6199DF"/>
<circle cx="145.5" cy="106.5" r="2.5" fill="#6199DF"/>
<circle cx="158.5" cy="106.5" r="2.5" fill="#6199DF"/>
<circle cx="171.5" cy="106.5" r="2.5" fill="#6199DF"/>
<circle cx="184.5" cy="106.5" r="2.5" fill="#6199DF"/>
<circle cx="197.5" cy="106.5" r="2.5" fill="#6199DF"/>
<circle cx="2.5" cy="119.5" r="2.5" fill="#6199DF"/>
<circle cx="15.5" cy="119.5" r="2.5" fill="#6199DF"/>
<circle cx="28.5" cy="119.5" r="2.5" fill="#6199DF"/>
<circle cx="41.5" cy="119.5" r="2.5" fill="#6199DF"/>
<circle cx="54.5" cy="119.5" r="2.5" fill="#6199DF"/>
<circle cx="67.5" cy="119.5" r="2.5" fill="#6199DF"/>
<circle cx="80.5" cy="119.5" r="2.5" fill="#6199DF"/>
<circle cx="93.5" cy="119.5" r="2.5" fill="#6199DF"/>
<circle cx="106.5" cy="119.5" r="2.5" fill="#6199DF"/>
<circle cx="119.5" cy="119.5" r="2.5" fill="#6199DF"/>
<circle cx="132.5" cy="119.5" r="2.5" fill="#6199DF"/>
<circle cx="145.5" cy="119.5" r="2.5" fill="#6199DF"/>
<circle cx="158.5" cy="119.5" r="2.5" fill="#6199DF"/>
<circle cx="171.5" cy="119.5" r="2.5" fill="#6199DF"/>
<circle cx="184.5" cy="119.5" r="2.5" fill="#6199DF"/>
<circle cx="197.5" cy="119.5" r="2.5" fill="#6199DF"/>
<circle cx="2.5" cy="132.5" r="2.5" fill="#6199DF"/>
<circle cx="15.5" cy="132.5" r="2.5" fill="#6199DF"/>
<circle cx="28.5" cy="132.5" r="2.5" fill="#6199DF"/>
<circle cx="41.5" cy="132.5" r="2.5" fill="#6199DF"/>
<circle cx="54.5" cy="132.5" r="2.5" fill="#6199DF"/>
<circle cx="67.5" cy="132.5" r="2.5" fill="#6199DF"/>
<circle cx="80.5" cy="132.5" r="2.5" fill="#6199DF"/>
<circle cx="93.5" cy="132.5" r="2.5" fill="#6199DF"/>
<circle cx="106.5" cy="132.5" r="2.5" fill="#6199DF"/>
<circle cx="119.5" cy="132.5" r="2.5" fill="#6199DF"/>
<circle cx="132.5" cy="132.5" r="2.5" fill="#6199DF"/>
<circle cx="145.5" cy="132.5" r="2.5" fill="#6199DF"/>
<circle cx="158.5" cy="132.5" r="2.5" fill="#6199DF"/>
<circle cx="171.5" cy="132.5" r="2.5" fill="#6199DF"/>
<circle cx="184.5" cy="132.5" r="2.5" fill="#6199DF"/>
<circle cx="197.5" cy="132.5" r="2.5" fill="#6199DF"/>
<circle cx="2.5" cy="145.5" r="2.5" fill="#6199DF"/>
<circle cx="15.5" cy="145.5" r="2.5" fill="#6199DF"/>
<circle cx="28.5" cy="145.5" r="2.5" fill="#6199DF"/>
<circle cx="41.5" cy="145.5" r="2.5" fill="#6199DF"/>
<circle cx="54.5" cy="145.5" r="2.5" fill="#6199DF"/>
<circle cx="67.5" cy="145.5" r="2.5" fill="#6199DF"/>
<circle cx="80.5" cy="145.5" r="2.5" fill="#6199DF"/>
<circle cx="93.5" cy="145.5" r="2.5" fill="#6199DF"/>
<circle cx="106.5" cy="145.5" r="2.5" fill="#6199DF"/>
<circle cx="119.5" cy="145.5" r="2.5" fill="#6199DF"/>
<circle cx="132.5" cy="145.5" r="2.5" fill="#6199DF"/>
<circle cx="145.5" cy="145.5" r="2.5" fill="#6199DF"/>
<circle cx="158.5" cy="145.5" r="2.5" fill="#6199DF"/>
<circle cx="171.5" cy="145.5" r="2.5" fill="#6199DF"/>
<circle cx="184.5" cy="145.5" r="2.5" fill="#6199DF"/>
<circle cx="197.5" cy="145.5" r="2.5" fill="#6199DF"/>
<circle cx="2.5" cy="158.5" r="2.5" fill="#6199DF"/>
<circle cx="15.5" cy="158.5" r="2.5" fill="#6199DF"/>
<circle cx="28.5" cy="158.5" r="2.5" fill="#6199DF"/>
<circle cx="41.5" cy="158.5" r="2.5" fill="#6199DF"/>
<circle cx="54.5" cy="158.5" r="2.5" fill="#6199DF"/>
<circle cx="67.5" cy="158.5" r="2.5" fill="#6199DF"/>
<circle cx="80.5" cy="158.5" r="2.5" fill="#6199DF"/>
<circle cx="93.5" cy="158.5" r="2.5" fill="#6199DF"/>
<circle cx="106.5" cy="158.5" r="2.5" fill="#6199DF"/>
<circle cx="119.5" cy="158.5" r="2.5" fill="#6199DF"/>
<circle cx="132.5" cy="158.5" r="2.5" fill="#6199DF"/>
<circle cx="145.5" cy="158.5" r="2.5" fill="#6199DF"/>
<circle cx="158.5" cy="158.5" r="2.5" fill="#6199DF"/>
<circle cx="171.5" cy="158.5" r="2.5" fill="#6199DF"/>
<circle cx="184.5" cy="158.5" r="2.5" fill="#6199DF"/>
<circle cx="197.5" cy="158.5" r="2.5" fill="#6199DF"/>
<circle cx="2.5" cy="171.5" r="2.5" fill="#6199DF"/>
<circle cx="15.5" cy="171.5" r="2.5" fill="#6199DF"/>
<circle cx="28.5" cy="171.5" r="2.5" fill="#6199DF"/>
<circle cx="41.5" cy="171.5" r="2.5" fill="#6199DF"/>
<circle cx="54.5" cy="171.5" r="2.5" fill="#6199DF"/>
<circle cx="67.5" cy="171.5" r="2.5" fill="#6199DF"/>
<circle cx="80.5" cy="171.5" r="2.5" fill="#6199DF"/>
<circle cx="93.5" cy="171.5" r="2.5" fill="#6199DF"/>
<circle cx="106.5" cy="171.5" r="2.5" fill="#6199DF"/>
<circle cx="119.5" cy="171.5" r="2.5" fill="#6199DF"/>
<circle cx="132.5" cy="171.5" r="2.5" fill="#6199DF"/>
<circle cx="145.5" cy="171.5" r="2.5" fill="#6199DF"/>
<circle cx="158.5" cy="171.5" r="2.5" fill="#6199DF"/>
<circle cx="171.5" cy="171.5" r="2.5" fill="#6199DF"/>
<circle cx="184.5" cy="171.5" r="2.5" fill="#6199DF"/>
<circle cx="197.5" cy="171.5" r="2.5" fill="#6199DF"/>
<circle cx="2.5" cy="184.5" r="2.5" fill="#6199DF"/>
<circle cx="15.5" cy="184.5" r="2.5" fill="#6199DF"/>
<circle cx="28.5" cy="184.5" r="2.5" fill="#6199DF"/>
<circle cx="41.5" cy="184.5" r="2.5" fill="#6199DF"/>
<circle cx="54.5" cy="184.5" r="2.5" fill="#6199DF"/>
<circle cx="67.5" cy="184.5" r="2.5" fill="#6199DF"/>
<circle cx="80.5" cy="184.5" r="2.5" fill="#6199DF"/>
<circle cx="93.5" cy="184.5" r="2.5" fill="#6199DF"/>
<circle cx="106.5" cy="184.5" r="2.5" fill="#6199DF"/>
<circle cx="119.5" cy="184.5" r="2.5" fill="#6199DF"/>
<circle cx="132.5" cy="184.5" r="2.5" fill="#6199DF"/>
<circle cx="145.5" cy="184.5" r="2.5" fill="#6199DF"/>
<circle cx="158.5" cy="184.5" r="2.5" fill="#6199DF"/>
<circle cx="171.5" cy="184.5" r="2.5" fill="#6199DF"/>
<circle cx="184.5" cy="184.5" r="2.5" fill="#6199DF"/>
<circle cx="197.5" cy="184.5" r="2.5" fill="#6199DF"/>
<circle cx="2.5" cy="197.5" r="2.5" fill="#6199DF"/>
<circle cx="15.5" cy="197.5" r="2.5" fill="#6199DF"/>
<circle cx="28.5" cy="197.5" r="2.5" fill="#6199DF"/>
<circle cx="41.5" cy="197.5" r="2.5" fill="#6199DF"/>
<circle cx="54.5" cy="197.5" r="2.5" fill="#6199DF"/>
<circle cx="67.5" cy="197.5" r="2.5" fill="#6199DF"/>
<circle cx="80.5" cy="197.5" r="2.5" fill="#6199DF"/>
<circle cx="93.5" cy="197.5" r="2.5" fill="#6199DF"/>
<circle cx="106.5" cy="197.5" r="2.5" fill="#6199DF"/>
<circle cx="119.5" cy="197.5" r="2.5" fill="#6199DF"/>
<circle cx="132.5" cy="197.5" r="2.5" fill="#6199DF"/>
<circle cx="145.5" cy="197.5" r="2.5" fill="#6199DF"/>
<circle cx="158.5" cy="197.5" r="2.5" fill="#6199DF"/>
<circle cx="171.5" cy="197.5" r="2.5" fill="#6199DF"/>
<circle cx="184.5" cy="197.5" r="2.5" fill="#6199DF"/>
<circle cx="197.5" cy="197.5" r="2.5" fill="#6199DF"/>
<circle cx="2.5" cy="210.5" r="2.5" fill="#6199DF"/>
<circle cx="15.5" cy="210.5" r="2.5" fill="#6199DF"/>
<circle cx="28.5" cy="210.5" r="2.5" fill="#6199DF"/>
<circle cx="41.5" cy="210.5" r="2.5" fill="#6199DF"/>
<circle cx="54.5" cy="210.5" r="2.5" fill="#6199DF"/>
<circle cx="67.5" cy="210.5" r="2.5" fill="#6199DF"/>
<circle cx="80.5" cy="210.5" r="2.5" fill="#6199DF"/>
<circle cx="93.5" cy="210.5" r="2.5" fill="#6199DF"/>
<circle cx="106.5" cy="210.5" r="2.5" fill="#6199DF"/>
<circle cx="119.5" cy="210.5" r="2.5" fill="#6199DF"/>
<circle cx="132.5" cy="210.5" r="2.5" fill="#6199DF"/>
<circle cx="145.5" cy="210.5" r="2.5" fill="#6199DF"/>
<circle cx="158.5" cy="210.5" r="2.5" fill="#6199DF"/>
<circle cx="171.5" cy="210.5" r="2.5" fill="#6199DF"/>
<circle cx="184.5" cy="210.5" r="2.5" fill="#6199DF"/>
<circle cx="197.5" cy="210.5" r="2.5" fill="#6199DF"/>
<circle cx="2.5" cy="223.5" r="2.5" fill="#6199DF"/>
<circle cx="15.5" cy="223.5" r="2.5" fill="#6199DF"/>
<circle cx="28.5" cy="223.5" r="2.5" fill="#6199DF"/>
<circle cx="41.5" cy="223.5" r="2.5" fill="#6199DF"/>
<circle cx="54.5" cy="223.5" r="2.5" fill="#6199DF"/>
<circle cx="67.5" cy="223.5" r="2.5" fill="#6199DF"/>
<circle cx="80.5" cy="223.5" r="2.5" fill="#6199DF"/>
<circle cx="93.5" cy="223.5" r="2.5" fill="#6199DF"/>
<circle cx="106.5" cy="223.5" r="2.5" fill="#6199DF"/>
<circle cx="119.5" cy="223.5" r="2.5" fill="#6199DF"/>
<circle cx="132.5" cy="223.5" r="2.5" fill="#6199DF"/>
<circle cx="145.5" cy="223.5" r="2.5" fill="#6199DF"/>
<circle cx="158.5" cy="223.5" r="2.5" fill="#6199DF"/>
<circle cx="171.5" cy="223.5" r="2.5" fill="#6199DF"/>
<circle cx="184.5" cy="223.5" r="2.5" fill="#6199DF"/>
<circle cx="197.5" cy="223.5" r="2.5" fill="#6199DF"/>
<circle cx="2.5" cy="236.5" r="2.5" fill="#6199DF"/>
<circle cx="15.5" cy="236.5" r="2.5" fill="#6199DF"/>
<circle cx="28.5" cy="236.5" r="2.5" fill="#6199DF"/>
<circle cx="41.5" cy="236.5" r="2.5" fill="#6199DF"/>
<circle cx="54.5" cy="236.5" r="2.5" fill="#6199DF"/>
<circle cx="67.5" cy="236.5" r="2.5" fill="#6199DF"/>
<circle cx="80.5" cy="236.5" r="2.5" fill="#6199DF"/>
<circle cx="93.5" cy="236.5" r="2.5" fill="#6199DF"/>
<circle cx="106.5" cy="236.5" r="2.5" fill="#6199DF"/>
<circle cx="119.5" cy="236.5" r="2.5" fill="#6199DF"/>
<circle cx="132.5" cy="236.5" r="2.5" fill="#6199DF"/>
<circle cx="145.5" cy="236.5" r="2.5" fill="#6199DF"/>
<circle cx="158.5" cy="236.5" r="2.5" fill="#6199DF"/>
<circle cx="171.5" cy="236.5" r="2.5" fill="#6199DF"/>
<circle cx="184.5" cy="236.5" r="2.5" fill="#6199DF"/>
<circle cx="197.5" cy="236.5" r="2.5" fill="#6199DF"/>
<circle cx="2.5" cy="249.5" r="2.5" fill="#6199DF"/>
<circle cx="15.5" cy="249.5" r="2.5" fill="#6199DF"/>
<circle cx="28.5" cy="249.5" r="2.5" fill="#6199DF"/>
<circle cx="41.5" cy="249.5" r="2.5" fill="#6199DF"/>
<circle cx="54.5" cy="249.5" r="2.5" fill="#6199DF"/>
<circle cx="67.5" cy="249.5" r="2.5" fill="#6199DF"/>
<circle cx="80.5" cy="249.5" r="2.5" fill="#6199DF"/>
<circle cx="93.5" cy="249.5" r="2.5" fill="#6199DF"/>
<circle cx="106.5" cy="249.5" r="2.5" fill="#6199DF"/>
<circle cx="119.5" cy="249.5" r="2.5" fill="#6199DF"/>
<circle cx="132.5" cy="249.5" r="2.5" fill="#6199DF"/>
<circle cx="145.5" cy="249.5" r="2.5" fill="#6199DF"/>
<circle cx="158.5" cy="249.5" r="2.5" fill="#6199DF"/>
<circle cx="171.5" cy="249.5" r="2.5" fill="#6199DF"/>
<circle cx="184.5" cy="249.5" r="2.5" fill="#6199DF"/>
<circle cx="197.5" cy="249.5" r="2.5" fill="#6199DF"/>
<circle cx="2.5" cy="262.5" r="2.5" fill="#6199DF"/>
<circle cx="15.5" cy="262.5" r="2.5" fill="#6199DF"/>
<circle cx="28.5" cy="262.5" r="2.5" fill="#6199DF"/>
<circle cx="41.5" cy="262.5" r="2.5" fill="#6199DF"/>
<circle cx="54.5" cy="262.5" r="2.5" fill="#6199DF"/>
<circle cx="67.5" cy="262.5" r="2.5" fill="#6199DF"/>
<circle cx="80.5" cy="262.5" r="2.5" fill="#6199DF"/>
<circle cx="93.5" cy="262.5" r="2.5" fill="#6199DF"/>
<circle cx="106.5" cy="262.5" r="2.5" fill="#6199DF"/>
<circle cx="119.5" cy="262.5" r="2.5" fill="#6199DF"/>
<circle cx="132.5" cy="262.5" r="2.5" fill="#6199DF"/>
<circle cx="145.5" cy="262.5" r="2.5" fill="#6199DF"/>
<circle cx="158.5" cy="262.5" r="2.5" fill="#6199DF"/>
<circle cx="171.5" cy="262.5" r="2.5" fill="#6199DF"/>
<circle cx="184.5" cy="262.5" r="2.5" fill="#6199DF"/>
<circle cx="197.5" cy="262.5" r="2.5" fill="#6199DF"/>
<circle cx="2.5" cy="275.5" r="2.5" fill="#6199DF"/>
<circle cx="15.5" cy="275.5" r="2.5" fill="#6199DF"/>
<circle cx="28.5" cy="275.5" r="2.5" fill="#6199DF"/>
<circle cx="41.5" cy="275.5" r="2.5" fill="#6199DF"/>
<circle cx="54.5" cy="275.5" r="2.5" fill="#6199DF"/>
<circle cx="67.5" cy="275.5" r="2.5" fill="#6199DF"/>
<circle cx="80.5" cy="275.5" r="2.5" fill="#6199DF"/>
<circle cx="93.5" cy="275.5" r="2.5" fill="#6199DF"/>
<circle cx="106.5" cy="275.5" r="2.5" fill="#6199DF"/>
<circle cx="119.5" cy="275.5" r="2.5" fill="#6199DF"/>
<circle cx="132.5" cy="275.5" r="2.5" fill="#6199DF"/>
<circle cx="145.5" cy="275.5" r="2.5" fill="#6199DF"/>
<circle cx="158.5" cy="275.5" r="2.5" fill="#6199DF"/>
<circle cx="171.5" cy="275.5" r="2.5" fill="#6199DF"/>
<circle cx="184.5" cy="275.5" r="2.5" fill="#6199DF"/>
<circle cx="197.5" cy="275.5" r="2.5" fill="#6199DF"/>
<circle cx="2.5" cy="288.5" r="2.5" fill="#6199DF"/>
<circle cx="15.5" cy="288.5" r="2.5" fill="#6199DF"/>
<circle cx="28.5" cy="288.5" r="2.5" fill="#6199DF"/>
<circle cx="41.5" cy="288.5" r="2.5" fill="#6199DF"/>
<circle cx="54.5" cy="288.5" r="2.5" fill="#6199DF"/>
<circle cx="67.5" cy="288.5" r="2.5" fill="#6199DF"/>
<circle cx="80.5" cy="288.5" r="2.5" fill="#6199DF"/>
<circle cx="93.5" cy="288.5" r="2.5" fill="#6199DF"/>
<circle cx="106.5" cy="288.5" r="2.5" fill="#6199DF"/>
<circle cx="119.5" cy="288.5" r="2.5" fill="#6199DF"/>
<circle cx="132.5" cy="288.5" r="2.5" fill="#6199DF"/>
<circle cx="145.5" cy="288.5" r="2.5" fill="#6199DF"/>
<circle cx="158.5" cy="288.5" r="2.5" fill="#6199DF"/>
<circle cx="171.5" cy="288.5" r="2.5" fill="#6199DF"/>
<circle cx="184.5" cy="288.5" r="2.5" fill="#6199DF"/>
<circle cx="197.5" cy="288.5" r="2.5" fill="#6199DF"/>
</svg>
