<svg width="208" height="80" viewBox="0 0 208 80" fill="none" xmlns="http://www.w3.org/2000/svg">
<path d="M91.6693 37.048L87.6373 55.24H80.2453L72.5653 27.496C71.2533 27.016 70.3733 26.472 69.9253 25.864L70.4053 21.88H81.4933L81.9733 25.864C81.4293 26.504 80.5653 27.032 79.3813 27.448L82.7893 41.608C83.3013 43.656 83.7013 45.688 83.9893 47.704L84.0853 48.52H84.7573C84.7893 46.632 85.0933 44.36 85.6693 41.704L89.9893 22.216H97.3333L101.653 41.608C102.165 43.944 102.517 45.976 102.709 47.704L102.805 48.568H103.477C103.541 46.616 103.925 44.328 104.629 41.704L108.421 27.64C107.077 27.16 106.149 26.568 105.637 25.864L106.117 21.88H116.725L117.205 25.864C116.597 26.632 115.525 27.256 113.989 27.736L105.925 55.24H98.3893L94.5013 37.096C94.0533 34.92 93.7173 32.792 93.4933 30.712L93.3973 29.752H92.7253C92.5973 31.96 92.2453 34.392 91.6693 37.048ZM117.083 34.552C117.083 34.072 117.099 33.56 117.131 33.016C120.107 31.416 123.307 30.616 126.731 30.616C130.155 30.616 132.603 31.272 134.075 32.584C135.579 33.864 136.331 36.008 136.331 39.016V49.24C137.451 49.464 138.331 49.736 138.971 50.056V54.232C137.339 55 135.003 55.384 131.963 55.384C131.643 54.552 131.371 53.544 131.147 52.36C129.771 54.376 127.275 55.384 123.659 55.384C121.515 55.384 119.675 54.76 118.139 53.512C116.635 52.264 115.883 50.568 115.883 48.424C115.883 46.28 116.587 44.6 117.995 43.384C119.435 42.136 121.563 41.512 124.379 41.512H129.611V39.208C129.611 36.712 128.283 35.464 125.627 35.464C124.635 35.464 123.819 35.56 123.179 35.752C123.115 37.096 122.923 38.136 122.603 38.872H117.899C117.355 37.752 117.083 36.312 117.083 34.552ZM125.723 50.488C127.355 50.488 128.651 50.008 129.611 49.048V45.112H126.251C123.947 45.112 122.795 45.992 122.795 47.752C122.795 48.552 123.035 49.208 123.515 49.72C124.027 50.232 124.763 50.488 125.723 50.488ZM140.59 20.92C142.382 20.504 144.046 20.296 145.582 20.296C147.118 20.296 148.414 20.344 149.47 20.44V49.672C150.718 50.152 151.598 50.696 152.109 51.304L151.63 55H140.59L140.11 51.304C140.558 50.696 141.438 50.152 142.75 49.672V26.248C141.63 25.864 140.75 25.32 140.11 24.616L140.59 20.92ZM153.996 20.92C155.788 20.504 157.452 20.296 158.988 20.296C160.524 20.296 161.82 20.344 162.876 20.44V49.672C164.124 50.152 165.004 50.696 165.516 51.304L165.036 55H153.996L153.516 51.304C153.964 50.696 154.844 50.152 156.156 49.672V26.248C155.036 25.864 154.156 25.32 153.516 24.616L153.996 20.92ZM179.018 55.384C175.178 55.384 172.282 54.36 170.33 52.312C168.41 50.264 167.45 47.288 167.45 43.384C167.45 41.016 167.786 38.984 168.458 37.288C169.13 35.56 170.042 34.232 171.194 33.304C173.434 31.512 176.042 30.616 179.018 30.616C181.994 30.616 184.266 31.384 185.834 32.92C187.434 34.424 188.234 37.144 188.234 41.08C188.234 43.384 187.098 44.536 184.826 44.536H174.41C174.538 46.552 175.05 47.976 175.946 48.808C176.874 49.64 178.33 50.056 180.314 50.056C181.402 50.056 182.442 49.928 183.434 49.672C184.426 49.416 185.146 49.16 185.594 48.904L186.266 48.52L187.706 52.36C187.514 52.584 187.226 52.872 186.842 53.224C186.49 53.544 185.562 53.992 184.058 54.568C182.586 55.112 180.906 55.384 179.018 55.384ZM182.042 40.264C182.106 39.816 182.138 39.272 182.138 38.632C182.138 37.992 181.882 37.32 181.37 36.616C180.858 35.88 179.962 35.512 178.682 35.512C177.434 35.512 176.474 35.896 175.802 36.664C175.13 37.432 174.682 38.728 174.458 40.552L182.042 40.264ZM199.437 24.952V31H206.301V35.032H199.437V47.176C199.437 48.2 199.581 48.952 199.869 49.432C200.157 49.88 200.845 50.104 201.933 50.104C203.021 50.104 204.189 49.864 205.437 49.384L206.877 53.128C204.413 54.376 201.885 55 199.293 55C196.733 55 194.989 54.456 194.061 53.368C193.165 52.248 192.717 50.632 192.717 48.52V35.032H190.557L190.029 32.104C190.541 31.496 191.597 30.888 193.197 30.28C193.581 27.656 194.493 25.88 195.933 24.952H199.437Z" fill="white"/>
<path d="M19 0V37L27 23.125V0H19Z" fill="#D9D9D9"/>
<path d="M0 2C0 0.895432 0.895431 0 2 0H9V79H2C0.89543 79 0 78.1046 0 77V2Z" fill="#EAF5F0"/>
<path d="M19 78.9998L19.1297 42L27.081 55.9029L27 79.0278L19 78.9998Z" fill="#D9D9D9"/>
<path d="M45.912 21.88C49.688 21.88 52.424 22.12 54.12 22.6C55.848 23.048 57.08 23.592 57.816 24.232C59.448 25.64 60.264 27.8 60.264 30.712C60.264 32.888 59.096 34.952 56.76 36.904C59.736 38.408 61.224 41.208 61.224 45.304C61.224 48.504 60.168 50.888 58.056 52.456C55.976 53.992 52.856 54.84 48.696 55H35.016L34.536 51.016C34.952 50.472 35.832 49.944 37.176 49.432V27.496C35.864 27.016 34.984 26.472 34.536 25.864L35.016 21.88H45.912ZM48.36 40.648H44.088V49.768H47.4C49.576 49.768 51.224 49.448 52.344 48.808C53.464 48.168 54.024 47.016 54.024 45.352C54.024 43.688 53.576 42.488 52.68 41.752C51.816 41.016 50.376 40.648 48.36 40.648ZM46.584 27.112H44.088V35.416H48.024C49.656 35.416 50.904 35 51.768 34.168C52.632 33.336 53.064 32.328 53.064 31.144C53.064 29.928 52.76 29.016 52.152 28.408C51.544 27.8 50.84 27.432 50.04 27.304C49.24 27.176 48.088 27.112 46.584 27.112ZM84.273 61H67.569L67.089 58.12C68.081 57 69.521 56.44 71.409 56.44H88.113L88.593 59.32C87.633 60.44 86.193 61 84.273 61Z" fill="#395257"/>
</svg>
