<svg width="96" height="98" viewBox="0 0 96 98" fill="none" xmlns="http://www.w3.org/2000/svg">
<g clip-path="url(#clip0_28_27)">
<path d="M5.21893 97.6068L94.0066 52.2924C96.6644 50.936 96.6644 47.0642 94.0066 45.7078L5.21893 0.393686C2.82107 -0.830101 0 0.949667 0 3.6859V94.3146C0 97.0508 2.82107 98.8306 5.21893 97.6068Z" fill="#F6B94C"/>
<path d="M1.20428 0.940002C0.476911 1.59932 0 2.56137 0 3.6857V94.3143C0 95.4387 0.476911 96.4007 1.20428 97.06L48.2835 49L1.20428 0.940002Z" fill="#52C1FF"/>
<path d="M65.6738 31.2479L5.21894 0.393882C3.80626 -0.327049 2.24745 -0.00491 1.20428 0.940402L48.2835 49.0004L65.6738 31.2479Z" fill="#67C7A5"/>
<path d="M1.20428 97.06C2.24745 98.0053 3.80626 98.3275 5.21894 97.6065L65.6738 66.7523L48.2835 49L1.20428 97.06Z" fill="#F56C61"/>
</g>
<defs>
<clipPath id="clip0_28_27">
<rect width="96" height="98" fill="white"/>
</clipPath>
</defs>
</svg>
